<?xml version="1.0" encoding="UTF-8" standalone="no"?>
<!-- Generated by IcoMoon.io -->

<svg
   xmlns:dc="http://purl.org/dc/elements/1.1/"
   xmlns:cc="http://creativecommons.org/ns#"
   xmlns:rdf="http://www.w3.org/1999/02/22-rdf-syntax-ns#"
   xmlns:svg="http://www.w3.org/2000/svg"
   xmlns="http://www.w3.org/2000/svg"
   xmlns:sodipodi="http://sodipodi.sourceforge.net/DTD/sodipodi-0.dtd"
   xmlns:inkscape="http://www.inkscape.org/namespaces/inkscape"
   version="1.1"
   width="20"
   height="20"
   viewBox="0 0 20 20"
   id="svg2996"
   inkscape:version="0.48.5 r10040"
   sodipodi:docname="minus.svg">
  <metadata
     id="metadata3005">
    <rdf:RDF>
      <cc:Work
         rdf:about="">
        <dc:format>image/svg+xml</dc:format>
        <dc:type
           rdf:resource="http://purl.org/dc/dcmitype/StillImage" />
      </cc:Work>
    </rdf:RDF>
  </metadata>
  <defs
     id="defs3003" />
  <sodipodi:namedview
     pagecolor="#ffffff"
     bordercolor="#666666"
     borderopacity="1"
     objecttolerance="10"
     gridtolerance="10"
     guidetolerance="10"
     inkscape:pageopacity="0"
     inkscape:pageshadow="2"
     inkscape:window-width="1434"
     inkscape:window-height="673"
     id="namedview3001"
     showgrid="false"
     inkscape:zoom="11.8"
     inkscape:cx="-4.5762712"
     inkscape:cy="10"
     inkscape:window-x="0"
     inkscape:window-y="0"
     inkscape:window-maximized="0"
     inkscape:current-layer="layer7" />
  <g
     id="icomoon-ignore" />
  <path
     d="M10 1.6c-4.64 0-8.4 3.762-8.4 8.4 0 4.64 3.761 8.4 8.4 8.4s8.4-3.761 8.4-8.4c0-4.639-3.761-8.4-8.4-8.4zM15.050 8.978v2.045h-10.1v-2.045h10.1z"
     fill="#000000"
     id="path2999" />
  <path
     style="fill:#000080;fill-opacity:0;stroke:none"
     d="M 8.5223655,18.232426 C 5.4196232,17.679479 2.7314831,15.17458 1.934058,12.09322 0.30921492,5.8146055 6.2030195,0.14510975 12.405336,2.0204632 c 2.771783,0.8380861 4.901478,3.0592033 5.698956,5.9436 0.245269,0.8871135 0.265548,3.0775498 0.03627,3.9172928 -0.71985,2.636441 -2.174889,4.445808 -4.522904,5.624313 -1.109219,0.556734 -1.928879,0.746006 -3.371891,0.778618 -0.6991528,0.0158 -1.4746816,-0.0075 -1.7233975,-0.05186 l 0,0 z m 6.5962785,-8.2578497 0,-1.0593221 -5.084746,0 -5.0847455,0 0,1.0593221 0,1.0593217 5.0847455,0 5.084746,0 0,-1.0593217 z"
     id="path3007"
     inkscape:connector-curvature="0" />
  <path
     style="fill:#000080;fill-opacity:0;stroke:none"
     d="m 4.9661017,9.9745763 0,-0.9745763 5.0423733,0 5.042372,0 0,0.9745763 0,0.9745767 -5.042372,0 -5.0423733,0 0,-0.9745767 z"
     id="path3777"
     inkscape:connector-curvature="0" />
  <path
     style="fill:#000080;fill-opacity:0;stroke:none"
     d="m 4.9661017,9.9745763 0,-0.9745763 5.0423733,0 5.042372,0 0,0.9745763 0,0.9745767 -5.042372,0 -5.0423733,0 0,-0.9745767 z"
     id="path3779"
     inkscape:connector-curvature="0" />
  <path
     style="fill:#2b0000;fill-opacity:0;stroke:none"
     d="M 8.5813346,18.238649 C 7.0315916,17.958147 5.4659747,17.168149 4.3019711,16.079315 3.1043086,14.958997 2.3420542,13.648915 1.8594426,11.881356 1.6301604,11.041613 1.6504392,8.8511767 1.8957083,7.9640632 3.1483408,3.4334199 7.5851513,0.79526263 12.052447,1.9247976 c 4.470972,1.1304642 7.170934,5.6959214 6.013495,10.1684224 -0.733311,2.833613 -3.030291,5.162572 -5.89645,5.97854 -0.712556,0.202858 -2.842185,0.301909 -3.5881574,0.166889 l 0,0 z m 6.4695124,-8.2640727 0,-1.0593221 -5.0847453,0 -5.0847458,0 0,1.0593221 0,1.0593217 5.0847458,0 5.0847453,0 0,-1.0593217 z"
     id="path3781"
     inkscape:connector-curvature="0" />
  <path
     style="fill:#2b0000;fill-opacity:0;stroke:none"
     d="M 8.5813346,18.238649 C 7.0315916,17.958147 5.4659747,17.168149 4.3019711,16.079315 3.1043086,14.958997 2.3420542,13.648915 1.8594426,11.881356 1.6301604,11.041613 1.6504392,8.8511767 1.8957083,7.9640632 3.1483408,3.4334199 7.5851513,0.79526263 12.052447,1.9247976 c 4.470972,1.1304642 7.170934,5.6959214 6.013495,10.1684224 -0.733311,2.833613 -3.030291,5.162572 -5.89645,5.97854 -0.712556,0.202858 -2.842185,0.301909 -3.5881574,0.166889 l 0,0 z m 6.4695124,-8.2640727 0,-1.0593221 -5.0847453,0 -5.0847458,0 0,1.0593221 0,1.0593217 5.0847458,0 5.0847453,0 0,-1.0593217 z"
     id="path3783"
     inkscape:connector-curvature="0" />
  <path
     style="fill:#808000;fill-opacity:0;stroke:none"
     d="M 8.5813346,18.238649 C 7.0315916,17.958147 5.4659747,17.168149 4.3019711,16.079315 3.1043086,14.958997 2.3420542,13.648915 1.8594426,11.881356 1.6301604,11.041613 1.6504392,8.8511767 1.8957083,7.9640632 3.1483408,3.4334199 7.5851513,0.79526263 12.052447,1.9247976 c 4.470972,1.1304642 7.170934,5.6959214 6.013495,10.1684224 -0.733311,2.833613 -3.030291,5.162572 -5.89645,5.97854 -0.712556,0.202858 -2.842185,0.301909 -3.5881574,0.166889 l 0,0 z m 6.4695124,-8.2640727 0,-1.0593221 -5.0847453,0 -5.0847458,0 0,1.0593221 0,1.0593217 5.0847458,0 5.0847453,0 0,-1.0593217 z"
     id="path3785"
     inkscape:connector-curvature="0" />
  <path
     style="fill:#808000;fill-opacity:0;stroke:none"
     d="M 8.3389831,18.238587 C 7.4061553,18.036224 6.7462035,17.800251 6.05641,17.422427 2.0330726,15.218708 0.46588712,10.403495 2.4463739,6.3305085 3.6196148,3.9176705 5.9982285,2.1233164 8.5754897,1.7068892 c 0.7379327,-0.1192332 2.1055133,-0.117371 2.8567133,0.00389 4.379455,0.7069441 7.552552,5.0446795 6.901068,9.4340048 -0.456037,3.072514 -2.451885,5.580319 -5.345079,6.716147 -1.356452,0.532526 -3.2327458,0.684937 -4.6492089,0.377656 l 0,0 z m 6.6949149,-8.221638 0,-1.016949 -5.0423726,0 -5.0423729,0 0,1.016949 0,1.016949 5.0423729,0 5.0423726,0 0,-1.016949 z"
     id="path3787"
     inkscape:connector-curvature="0" />
  <path
     style="fill:#808000;fill-opacity:0;stroke:none"
     d="M 8.8389831,18.346015 C 8.1725186,18.253297 7.1544197,17.935902 6.436312,17.596976 5.4810541,17.146122 4.7838154,16.65866 4.0625777,15.937422 1.7556874,13.630532 0.99108348,10.189124 2.1028128,7.1167103 3.1919975,4.1066016 6.0708291,1.8918339 9.2215003,1.6400997 11.767042,1.4367146 14.06791,2.2513873 15.859567,3.9904517 17.68003,5.7574769 18.568379,8.1692159 18.3599,10.7785 c -0.251648,3.149602 -2.466606,6.029541 -5.474344,7.117867 -1.191538,0.431149 -2.852717,0.615736 -4.0465729,0.449648 l 0,0 z M 15.0493,9.9957627 15.073175,9 10.028114,9 4.9830508,9 l 0,1.017621 0,1.017621 5.0211862,-0.02186 5.021187,-0.02186 0.02388,-0.9957623 z"
     id="path4933"
     inkscape:connector-curvature="0" />
  <path
     style="fill:#808000;fill-opacity:0;stroke:none"
     d="M 8.8389831,18.346015 C 8.1725186,18.253297 7.1544197,17.935902 6.436312,17.596976 5.4810541,17.146122 4.7838154,16.65866 4.0625777,15.937422 1.7556874,13.630532 0.99108348,10.189124 2.1028128,7.1167103 3.1919975,4.1066016 6.0708291,1.8918339 9.2215003,1.6400997 11.767042,1.4367146 14.06791,2.2513873 15.859567,3.9904517 17.68003,5.7574769 18.568379,8.1692159 18.3599,10.7785 c -0.251648,3.149602 -2.466606,6.029541 -5.474344,7.117867 -1.191538,0.431149 -2.852717,0.615736 -4.0465729,0.449648 l 0,0 z M 15.0493,9.9957627 15.073175,9 10.028114,9 4.9830508,9 l 0,1.017621 0,1.017621 5.0211862,-0.02186 5.021187,-0.02186 0.02388,-0.9957623 z"
     id="path4935"
     inkscape:connector-curvature="0" />
  <g
     inkscape:groupmode="layer"
     id="layer7"
     inkscape:label="Calque 1"
     style="display:inline">
    <path
       style="fill:#808000;fill-opacity:0;stroke:none"
       d="M 8.8559322,18.353408 C 6.5239703,17.994815 4.3341806,16.622157 3.0440419,14.710253 2.5052513,13.911801 2.1934576,13.24694 1.8962408,12.262712 1.6861887,11.567129 1.6653783,11.373202 1.6597932,10.059322 1.6544551,8.8035217 1.6789102,8.5262053 1.8503625,7.8983051 2.2238501,6.5305024 2.9244249,5.2610837 3.8559322,4.2642785 6.4034028,1.5382322 10.520965,0.82098088 13.825415,2.5276625 c 2.166299,1.1188492 3.674839,2.992442 4.324222,5.3706426 0.171453,0.6279002 0.195908,0.9052166 0.19057,2.1610169 -0.0056,1.31388 -0.0264,1.507807 -0.236448,2.20339 -0.607948,2.013208 -1.783636,3.620624 -3.456581,4.725881 -1.434298,0.947592 -2.665308,1.333096 -4.392941,1.375699 -0.629237,0.01552 -1.2584743,0.01062 -1.3983048,-0.01088 z M 15,10.016949 15,9 10,9 5,9 l 0,1.016949 0,1.016949 5,0 5,0 0,-1.016949 z"
       id="path4938"
       inkscape:connector-curvature="0" />
    <path
       style="fill:#808000;fill-opacity:0;stroke:none"
       d="M 8.8559322,18.353408 C 6.5239703,17.994815 4.3341806,16.622157 3.0440419,14.710253 2.5052513,13.911801 2.1934576,13.24694 1.8962408,12.262712 1.6861887,11.567129 1.6653783,11.373202 1.6597932,10.059322 1.6544551,8.8035217 1.6789102,8.5262053 1.8503625,7.8983051 2.2238501,6.5305024 2.9244249,5.2610837 3.8559322,4.2642785 6.4034028,1.5382322 10.520965,0.82098088 13.825415,2.5276625 c 2.166299,1.1188492 3.674839,2.992442 4.324222,5.3706426 0.171453,0.6279002 0.195908,0.9052166 0.19057,2.1610169 -0.0056,1.31388 -0.0264,1.507807 -0.236448,2.20339 -0.607948,2.013208 -1.783636,3.620624 -3.456581,4.725881 -1.434298,0.947592 -2.665308,1.333096 -4.392941,1.375699 -0.629237,0.01552 -1.2584743,0.01062 -1.3983048,-0.01088 z M 15,10.016949 15,9 10,9 5,9 l 0,1.016949 0,1.016949 5,0 5,0 0,-1.016949 z"
       id="path4940"
       inkscape:connector-curvature="0" />
    <path
       style="fill:#808000;fill-opacity:0;stroke:none"
       d="M 8.8559322,18.353408 C 6.5239703,17.994815 4.3341806,16.622157 3.0440419,14.710253 2.5052513,13.911801 2.1934576,13.24694 1.8962408,12.262712 1.6861887,11.567129 1.6653783,11.373202 1.6597932,10.059322 1.6544551,8.8035217 1.6789102,8.5262053 1.8503625,7.8983051 2.2238501,6.5305024 2.9244249,5.2610837 3.8559322,4.2642785 6.4034028,1.5382322 10.520965,0.82098088 13.825415,2.5276625 c 2.166299,1.1188492 3.674839,2.992442 4.324222,5.3706426 0.171453,0.6279002 0.195908,0.9052166 0.19057,2.1610169 -0.0056,1.31388 -0.0264,1.507807 -0.236448,2.20339 -0.607948,2.013208 -1.783636,3.620624 -3.456581,4.725881 -1.434298,0.947592 -2.665308,1.333096 -4.392941,1.375699 -0.629237,0.01552 -1.2584743,0.01062 -1.3983048,-0.01088 z M 15,10.016949 15,9 10,9 5,9 l 0,1.016949 0,1.016949 5,0 5,0 0,-1.016949 z"
       id="path4942"
       inkscape:connector-curvature="0" />
    <path
       style="fill:#808000;fill-opacity:0;stroke:none"
       d="M 8.8559322,18.353408 C 6.5239703,17.994815 4.3341806,16.622157 3.0440419,14.710253 2.5052513,13.911801 2.1934576,13.24694 1.8962408,12.262712 1.6861887,11.567129 1.6653783,11.373202 1.6597932,10.059322 1.6544551,8.8035217 1.6789102,8.5262053 1.8503625,7.8983051 2.2238501,6.5305024 2.9244249,5.2610837 3.8559322,4.2642785 6.4034028,1.5382322 10.520965,0.82098088 13.825415,2.5276625 c 2.166299,1.1188492 3.674839,2.992442 4.324222,5.3706426 0.171453,0.6279002 0.195908,0.9052166 0.19057,2.1610169 -0.0056,1.31388 -0.0264,1.507807 -0.236448,2.20339 -0.607948,2.013208 -1.783636,3.620624 -3.456581,4.725881 -1.434298,0.947592 -2.665308,1.333096 -4.392941,1.375699 -0.629237,0.01552 -1.2584743,0.01062 -1.3983048,-0.01088 z M 15,10.016949 15,9 10,9 5,9 l 0,1.016949 0,1.016949 5,0 5,0 0,-1.016949 z"
       id="path4944"
       inkscape:connector-curvature="0" />
    <path
       style="fill:#808000;fill-opacity:0;stroke:none"
       d="M 4.9152542,10.016949 4.9152542,9 10,9 l 5.084746,0 0,1.016949 0,1.016949 -5.084746,0 -5.0847458,0 0,-1.016949 z"
       id="path4946"
       inkscape:connector-curvature="0" />
    <path
       style="fill:#00ffff;fill-opacity:0;stroke:none"
       d="M 4.9152542,10.016949 4.9152542,9 10,9 l 5.084746,0 0,1.016949 0,1.016949 -5.084746,0 -5.0847458,0 0,-1.016949 z"
       id="path4948"
       inkscape:connector-curvature="0" />
    <path
       style="fill:#00ffff;fill-opacity:0;stroke:none"
       d="M 8.8559322,18.353408 C 6.5239703,17.994815 4.3341806,16.622157 3.0440419,14.710253 2.5052513,13.911801 2.1934576,13.24694 1.8962408,12.262712 1.6861887,11.567129 1.6653783,11.373202 1.6597932,10.059322 1.6544551,8.8035217 1.6789102,8.5262053 1.8503625,7.8983051 2.2238501,6.5305024 2.9244249,5.2610837 3.8559322,4.2642785 6.4034028,1.5382322 10.520965,0.82098088 13.825415,2.5276625 c 2.166299,1.1188492 3.674839,2.992442 4.324222,5.3706426 0.171453,0.6279002 0.195908,0.9052166 0.19057,2.1610169 -0.0056,1.31388 -0.0264,1.507807 -0.236448,2.20339 -0.607948,2.013208 -1.783636,3.620624 -3.456581,4.725881 -1.434298,0.947592 -2.665308,1.333096 -4.392941,1.375699 -0.629237,0.01552 -1.2584743,0.01062 -1.3983048,-0.01088 z M 15,10.016949 15,9 10,9 5,9 l 0,1.016949 0,1.016949 5,0 5,0 0,-1.016949 z"
       id="path4950"
       inkscape:connector-curvature="0" />
    <path
       style="fill:#00ffff;fill-opacity:0;stroke:none"
       d="M 9.1949153,18.362017 C 6.7850417,18.154763 4.3593683,16.716193 3.021841,14.701014 2.5583,14.002623 2.0790783,12.939308 1.8503625,12.101695 1.6789102,11.473795 1.6544551,11.196478 1.6597932,9.940678 1.6653783,8.6267983 1.6861887,8.4328715 1.8962408,7.7372881 2.1934576,6.7530604 2.5052513,6.0881996 3.0440419,5.2897464 4.1708066,3.6199533 5.9275702,2.3865966 7.9669953,1.8335283 c 1.0421419,-0.2826166 3.0238677,-0.2826166 4.0660087,0 2.039426,0.5530683 3.796189,1.786425 4.922954,3.4562181 0.53879,0.7984532 0.850584,1.463314 1.147801,2.4475417 0.210052,0.6955834 0.230863,0.8895102 0.236448,2.2033899 0.0053,1.2558 -0.01912,1.533117 -0.19057,2.161017 -0.501659,1.837199 -1.595816,3.482347 -3.047812,4.582613 -1.15605,0.876012 -2.846673,1.55385 -4.117013,1.650675 -0.331901,0.0253 -0.698795,0.05649 -0.81532,0.06931 -0.116526,0.01282 -0.5550852,-0.0062 -0.9745767,-0.04228 l 0,0 z M 15,9.9830508 l 0,-1.0169491 -5,0 -5,0 L 5,9.9830508 5,11 l 5,0 5,0 0,-1.0169492 z"
       id="path4952"
       inkscape:connector-curvature="0" />
    <path
       style="fill:#00ffff;fill-opacity:0;stroke:none"
       d="M 9.1949153,18.362017 C 6.7850417,18.154763 4.3593683,16.716193 3.021841,14.701014 2.5583,14.002623 2.0790783,12.939308 1.8503625,12.101695 1.6789102,11.473795 1.6544551,11.196478 1.6597932,9.940678 1.6653783,8.6267983 1.6861887,8.4328715 1.8962408,7.7372881 2.1934576,6.7530604 2.5052513,6.0881996 3.0440419,5.2897464 4.1708066,3.6199533 5.9275702,2.3865966 7.9669953,1.8335283 c 1.0421419,-0.2826166 3.0238677,-0.2826166 4.0660087,0 2.039426,0.5530683 3.796189,1.786425 4.922954,3.4562181 0.53879,0.7984532 0.850584,1.463314 1.147801,2.4475417 0.210052,0.6955834 0.230863,0.8895102 0.236448,2.2033899 0.0053,1.2558 -0.01912,1.533117 -0.19057,2.161017 -0.501659,1.837199 -1.595816,3.482347 -3.047812,4.582613 -1.15605,0.876012 -2.846673,1.55385 -4.117013,1.650675 -0.331901,0.0253 -0.698795,0.05649 -0.81532,0.06931 -0.116526,0.01282 -0.5550852,-0.0062 -0.9745767,-0.04228 l 0,0 z M 15,9.9830508 l 0,-1.0169491 -5,0 -5,0 L 5,9.9830508 5,11 l 5,0 5,0 0,-1.0169492 z"
       id="path4954"
       inkscape:connector-curvature="0" />
    <path
       style="fill:#00ffff;fill-opacity:0;stroke:none"
       d="M 9.1949153,18.362017 C 6.7850417,18.154763 4.3593683,16.716193 3.021841,14.701014 2.5583,14.002623 2.0790783,12.939308 1.8503625,12.101695 1.6789102,11.473795 1.6544551,11.196478 1.6597932,9.940678 1.6653783,8.6267983 1.6861887,8.4328715 1.8962408,7.7372881 2.1934576,6.7530604 2.5052513,6.0881996 3.0440419,5.2897464 4.1708066,3.6199533 5.9275702,2.3865966 7.9669953,1.8335283 c 1.0421419,-0.2826166 3.0238677,-0.2826166 4.0660087,0 2.039426,0.5530683 3.796189,1.786425 4.922954,3.4562181 0.53879,0.7984532 0.850584,1.463314 1.147801,2.4475417 0.210052,0.6955834 0.230863,0.8895102 0.236448,2.2033899 0.0053,1.2558 -0.01912,1.533117 -0.19057,2.161017 -0.501659,1.837199 -1.595816,3.482347 -3.047812,4.582613 -1.15605,0.876012 -2.846673,1.55385 -4.117013,1.650675 -0.331901,0.0253 -0.698795,0.05649 -0.81532,0.06931 -0.116526,0.01282 -0.5550852,-0.0062 -0.9745767,-0.04228 l 0,0 z M 15,9.9830508 l 0,-1.0169491 -5,0 -5,0 L 5,9.9830508 5,11 l 5,0 5,0 0,-1.0169492 z"
       id="path4956"
       inkscape:connector-curvature="0" />
    <path
       style="fill:#00ffff;fill-opacity:0;stroke:none"
       d="M 9.1949153,18.362017 C 6.7850417,18.154763 4.3593683,16.716193 3.021841,14.701014 2.5583,14.002623 2.0790783,12.939308 1.8503625,12.101695 1.6789102,11.473795 1.6544551,11.196478 1.6597932,9.940678 1.6653783,8.6267983 1.6861887,8.4328715 1.8962408,7.7372881 2.1934576,6.7530604 2.5052513,6.0881996 3.0440419,5.2897464 4.1708066,3.6199533 5.9275702,2.3865966 7.9669953,1.8335283 c 1.0421419,-0.2826166 3.0238677,-0.2826166 4.0660087,0 2.039426,0.5530683 3.796189,1.786425 4.922954,3.4562181 0.53879,0.7984532 0.850584,1.463314 1.147801,2.4475417 0.210052,0.6955834 0.230863,0.8895102 0.236448,2.2033899 0.0053,1.2558 -0.01912,1.533117 -0.19057,2.161017 -0.501659,1.837199 -1.595816,3.482347 -3.047812,4.582613 -1.15605,0.876012 -2.846673,1.55385 -4.117013,1.650675 -0.331901,0.0253 -0.698795,0.05649 -0.81532,0.06931 -0.116526,0.01282 -0.5550852,-0.0062 -0.9745767,-0.04228 l 0,0 z M 15,9.9830508 l 0,-1.0169491 -5,0 -5,0 L 5,9.9830508 5,11 l 5,0 5,0 0,-1.0169492 z"
       id="path4958"
       inkscape:connector-curvature="0" />
    <path
       style="fill:#00ffff;fill-opacity:0;stroke:none"
       d="M 9.1949153,18.362017 C 6.7850417,18.154763 4.3593683,16.716193 3.021841,14.701014 2.5583,14.002623 2.0790783,12.939308 1.8503625,12.101695 1.6789102,11.473795 1.6544551,11.196478 1.6597932,9.940678 1.6653783,8.6267983 1.6861887,8.4328715 1.8962408,7.7372881 2.1934576,6.7530604 2.5052513,6.0881996 3.0440419,5.2897464 4.1708066,3.6199533 5.9275702,2.3865966 7.9669953,1.8335283 c 1.0421419,-0.2826166 3.0238677,-0.2826166 4.0660087,0 2.039426,0.5530683 3.796189,1.786425 4.922954,3.4562181 0.53879,0.7984532 0.850584,1.463314 1.147801,2.4475417 0.210052,0.6955834 0.230863,0.8895102 0.236448,2.2033899 0.0053,1.2558 -0.01912,1.533117 -0.19057,2.161017 -0.501659,1.837199 -1.595816,3.482347 -3.047812,4.582613 -1.15605,0.876012 -2.846673,1.55385 -4.117013,1.650675 -0.331901,0.0253 -0.698795,0.05649 -0.81532,0.06931 -0.116526,0.01282 -0.5550852,-0.0062 -0.9745767,-0.04228 l 0,0 z M 15,9.9830508 l 0,-1.0169491 -5,0 -5,0 L 5,9.9830508 5,11 l 5,0 5,0 0,-1.0169492 z"
       id="path4960"
       inkscape:connector-curvature="0" />
    <path
       style="fill:#00ffff;fill-opacity:0;stroke:none"
       d="m 4.9724174,11.028915 c -0.03144,-0.03144 -0.057163,-0.508435 -0.057163,-1.0599885 l 0,-1.0028248 5.0873538,0 5.087355,0 -0.02379,1.0381353 -0.02379,1.038136 -5.006396,0.02185 c -2.7535181,0.01202 -5.0321198,-0.0039 -5.0635596,-0.03531 z"
       id="path4962"
       inkscape:connector-curvature="0" />
    <path
       style="fill:#fab300;fill-opacity:1;stroke:none"
       d="M 5,9.9745763 5,9 l 5,0 5,0 0,0.9745763 0,0.9745767 -5,0 -5,0 0,-0.9745767 z"
       id="path4977"
       inkscape:connector-curvature="0" />
  </g>
  <g
     inkscape:groupmode="layer"
     id="layer8"
     inkscape:label="Calque 2">
    <path
       style="fill:#000000;fill-opacity:1;stroke:none"
       d="M 9.1949153,18.362017 C 6.7850417,18.154763 4.3593683,16.716193 3.021841,14.701014 2.5583,14.002623 2.0790783,12.939308 1.8503625,12.101695 1.6789102,11.473795 1.6544551,11.196478 1.6597932,9.940678 1.6653783,8.6267983 1.6861887,8.4328715 1.8962408,7.7372881 2.1934576,6.7530604 2.5052513,6.0881996 3.0440419,5.2897464 4.1708066,3.6199533 5.9275702,2.3865966 7.9669953,1.8335283 c 1.0421419,-0.2826166 3.0238677,-0.2826166 4.0660087,0 2.039426,0.5530683 3.796189,1.786425 4.922954,3.4562181 0.53879,0.7984532 0.850584,1.463314 1.147801,2.4475417 0.210052,0.6955834 0.230863,0.8895102 0.236448,2.2033899 0.0053,1.2558 -0.01912,1.533117 -0.19057,2.161017 -0.501659,1.837199 -1.595816,3.482347 -3.047812,4.582613 -1.15605,0.876012 -2.846673,1.55385 -4.117013,1.650675 -0.331901,0.0253 -0.698795,0.05649 -0.81532,0.06931 -0.116526,0.01282 -0.5550852,-0.0062 -0.9745767,-0.04228 l 0,0 z M 15,9.9830508 l 0,-1.0169491 -5,0 -5,0 L 5,9.9830508 5,11 l 5,0 5,0 0,-1.0169492 z"
       id="path4965"
       inkscape:connector-curvature="0" />
    <path
       style="fill:#296900;fill-opacity:1;stroke:none"
       d="M 8.3050847,18.247557 C 5.7132275,17.677842 3.6437618,16.087685 2.5014954,13.788136 1.760351,12.296103 1.651394,11.797672 1.6585905,9.9322034 1.6642964,8.4531034 1.6780289,8.3236543 1.9013257,7.6440678 2.8669764,4.705184 4.9935756,2.6398832 7.8715086,1.8459729 c 1.1126306,-0.3069317 3.1443524,-0.3069317 4.2569834,0 1.879973,0.518612 3.495184,1.6260159 4.664584,3.1980839 0.559372,0.7519838 0.96152,1.552834 1.305599,2.600011 0.223296,0.6795865 0.237028,0.8090356 0.242734,2.2881356 0.007,1.8138436 -0.101167,2.3413406 -0.75869,3.6999856 -1.080353,2.23234 -2.905393,3.756681 -5.379329,4.493015 -0.999385,0.297454 -2.8390248,0.355193 -3.8983053,0.122353 z M 15,9.9745763 15,9 10,9 5,9 l 0,0.9745763 0,0.9745767 5,0 5,0 0,-0.9745767 z"
       id="path4975"
       inkscape:connector-curvature="0" />
  </g>
</svg>
