<?xml version="1.0" encoding="UTF-8" standalone="no"?>
<!-- Generated by IcoMoon.io -->

<svg
   xmlns:dc="http://purl.org/dc/elements/1.1/"
   xmlns:cc="http://creativecommons.org/ns#"
   xmlns:rdf="http://www.w3.org/1999/02/22-rdf-syntax-ns#"
   xmlns:svg="http://www.w3.org/2000/svg"
   xmlns="http://www.w3.org/2000/svg"
   xmlns:sodipodi="http://sodipodi.sourceforge.net/DTD/sodipodi-0.dtd"
   xmlns:inkscape="http://www.inkscape.org/namespaces/inkscape"
   version="1.1"
   width="20"
   height="20"
   viewBox="0 0 20 20"
   id="svg3018"
   inkscape:version="0.48.5 r10040"
   sodipodi:docname="plus.svg"
   enable-background="new">
  <metadata
     id="metadata3027">
    <rdf:RDF>
      <cc:Work
         rdf:about="">
        <dc:format>image/svg+xml</dc:format>
        <dc:type
           rdf:resource="http://purl.org/dc/dcmitype/StillImage" />
      </cc:Work>
    </rdf:RDF>
  </metadata>
  <defs
     id="defs3025" />
  <sodipodi:namedview
     pagecolor="#ffffff"
     bordercolor="#666666"
     borderopacity="1"
     objecttolerance="10"
     gridtolerance="10"
     guidetolerance="10"
     inkscape:pageopacity="0"
     inkscape:pageshadow="2"
     inkscape:window-width="1600"
     inkscape:window-height="837"
     id="namedview3023"
     showgrid="false"
     inkscape:zoom="11.8"
     inkscape:cx="-30.59322"
     inkscape:cy="8.7288136"
     inkscape:window-x="-8"
     inkscape:window-y="-8"
     inkscape:window-maximized="1"
     inkscape:current-layer="layer6" />
  <g
     id="icomoon-ignore" />
  <path
     d="M10 1.6c-4.64 0-8.4 3.762-8.4 8.4 0 4.64 3.761 8.4 8.4 8.4s8.4-3.761 8.4-8.4c0-4.639-3.761-8.4-8.4-8.4zM11.022 11.022v4.027h-2.044v-4.027h-4.028v-2.044h4.027v-4.028h2.045v4.027h4.027v2.045h-4.027z"
     fill="#000000"
     id="path3021" />
  <path
     style="fill:#296900;fill-opacity:1"
     d="M 9.1760747,18.29669 C 8.1925439,18.20525 7.2956083,17.942436 6.3135593,17.457938 3.7252786,16.180997 1.9686805,13.634035 1.7049295,10.7757 1.388123,7.3423897 3.2210279,4.0677777 6.3135593,2.5420622 7.3183983,2.04632 8.165822,1.8025999 9.2243002,1.7049295 12.65761,1.388123 15.932222,3.2210279 17.457938,6.3135593 c 0.708887,1.43687 0.981971,2.8924852 0.837132,4.4621407 -0.09767,1.058478 -0.34139,1.905902 -0.837132,2.910741 -1.538506,3.118456 -4.799905,4.933973 -8.2818633,4.610249 z m 1.9256203,-5.20347 0,-1.991525 1.991525,0 1.991526,0 0,-1.101695 0,-1.1016949 -1.991526,0 -1.991525,0 0,-1.9915254 0,-1.9915255 -1.101695,0 -1.1016949,0 0,1.9915255 0,1.9915254 -1.9915254,0 -1.9915255,0 0,1.1016949 0,1.101695 1.9915255,0 1.9915254,0 0,1.991525 0,1.991526 1.1016949,0 1.101695,0 0,-1.991526 z"
     id="path5292"
     inkscape:connector-curvature="0" />
  <path
     style="fill:#fab300;fill-opacity:0"
     d="m 9,13.008475 0,-1.991526 -1.9915254,0 -1.9915254,0 0,-1.016949 0,-1.0169492 1.9915254,0 L 9,8.9830508 9,6.9915254 9,5 l 0.9745763,0 0.9745767,0 0,1.9915254 0,1.9915254 2.033898,0 2.033898,0 0,1.0169492 0,1.016949 -2.033898,0 -2.033898,0 0,1.991526 0,1.991525 L 9.9745763,15 9,15 9,13.008475 z"
     id="path5802"
     inkscape:connector-curvature="0" />
  <path
     style="fill:#ab3000;fill-opacity:0;stroke:none;stroke-opacity:1"
     d="m 9,13.008475 0,-1.991526 -1.9915254,0 -1.9915254,0 0,-1.016949 0,-1.0169492 1.9915254,0 L 9,8.9830508 9,6.9915254 9,5 l 0.9745763,0 0.9745767,0 0,1.9915254 0,1.9915254 2.033898,0 2.033898,0 0,1.0169492 0,1.016949 -2.033898,0 -2.033898,0 0,1.991526 0,1.991525 L 9.9745763,15 9,15 9,13.008475 z"
     id="path5804"
     inkscape:connector-curvature="0" />
  <path
     style="fill:#aa4400;fill-opacity:0;stroke:none"
     d="m 9.0254237,13.008475 0,-1.991526 -2.0338983,0 -2.0338983,0 0,-1.016949 0,-1.0169492 2.0338983,0 2.0338983,0 0,-1.9915254 L 9.0254237,5 10,5 l 0.974576,0 0,1.9915254 0,1.9915254 2.033899,0 2.033898,0 0,1.0169492 0,1.016949 -2.033898,0 -2.033899,0 0,1.991526 0,1.991525 L 10,15 l -0.9745763,0 0,-1.991525 z"
     id="path5806"
     inkscape:connector-curvature="0" />
  <path
     style="fill:#aa4400;fill-opacity:0;stroke:none"
     d="m 9.0254237,13.008475 0,-1.991526 -2.0338983,0 -2.0338983,0 0,-1.016949 0,-1.0169492 2.0338983,0 2.0338983,0 0,-1.9915254 L 9.0254237,5 10,5 l 0.974576,0 0,1.9915254 0,1.9915254 2.033899,0 2.033898,0 0,1.0169492 0,1.016949 -2.033898,0 -2.033899,0 0,1.991526 0,1.991525 L 10,15 l -0.9745763,0 0,-1.991525 z"
     id="path5808"
     inkscape:connector-curvature="0" />
  <path
     style="fill:#aa4400;fill-opacity:0;stroke:none"
     d="m 9.0254237,13.008475 0,-1.991526 -2.0338983,0 -2.0338983,0 0,-1.016949 0,-1.0169492 2.0338983,0 2.0338983,0 0,-1.9915254 L 9.0254237,5 10,5 l 0.974576,0 0,1.9915254 0,1.9915254 2.033899,0 2.033898,0 0,1.0169492 0,1.016949 -2.033898,0 -2.033899,0 0,1.991526 0,1.991525 L 10,15 l -0.9745763,0 0,-1.991525 z"
     id="path5810"
     inkscape:connector-curvature="0" />
  <path
     style="fill:#ffcc00;fill-opacity:0;stroke:none"
     d="m 9.0254237,13.008475 0,-1.991526 -2.0338983,0 -2.0338983,0 0,-1.016949 0,-1.0169492 2.0338983,0 2.0338983,0 0,-1.9915254 L 9.0254237,5 10,5 l 0.974576,0 0,1.9915254 0,1.9915254 2.033899,0 2.033898,0 0,1.0169492 0,1.016949 -2.033898,0 -2.033899,0 0,1.991526 0,1.991525 L 10,15 l -0.9745763,0 0,-1.991525 z"
     id="path5812"
     inkscape:connector-curvature="0" />
  <path
     style="fill:#ffcc00;fill-opacity:0;stroke:none"
     d="m 9.0254237,13.008475 0,-1.991526 -2.0338983,0 -2.0338983,0 0,-1.016949 0,-1.0169492 2.0338983,0 2.0338983,0 0,-1.9915254 L 9.0254237,5 10,5 l 0.974576,0 0,1.9915254 0,1.9915254 2.033899,0 2.033898,0 0,1.0169492 0,1.016949 -2.033898,0 -2.033899,0 0,1.991526 0,1.991525 L 10,15 l -0.9745763,0 0,-1.991525 z"
     id="path5814"
     inkscape:connector-curvature="0" />
  <path
     style="fill:#ffcc00;fill-opacity:0;stroke:none"
     d="m 8.9830508,13.008475 0,-1.991526 -1.9915254,0 L 5,11.016949 5,10 5,8.9830508 l 1.9915254,0 1.9915254,0 0,-1.9915254 L 8.9830508,5 10,5 l 1.016949,0 0,1.9915254 0,1.9915254 1.991526,0 1.991525,0 L 15,10 l 0,1.016949 -1.991525,0 -1.991526,0 0,1.991526 0,1.991525 L 10,15 l -1.0169492,0 0,-1.991525 z"
     id="path5816"
     inkscape:connector-curvature="0" />
  <path
     style="fill:#ffcc00;fill-opacity:0;stroke:none"
     d="m 8.9830508,13.008475 0,-1.991526 -1.9915254,0 L 5,11.016949 5,10 5,8.9830508 l 1.9915254,0 1.9915254,0 0,-1.9915254 L 8.9830508,5 10,5 l 1.016949,0 0,1.9915254 0,1.9915254 1.991526,0 1.991525,0 L 15,10 l 0,1.016949 -1.991525,0 -1.991526,0 0,1.991526 0,1.991525 L 10,15 l -1.0169492,0 0,-1.991525 z"
     id="path5818"
     inkscape:connector-curvature="0" />
  <path
     style="fill:#800000;fill-opacity:0;stroke:none"
     d="m 8.9830508,13.008475 0,-1.991526 -1.9915254,0 L 5,11.016949 5,10 5,8.9830508 l 1.9915254,0 1.9915254,0 0,-1.9915254 L 8.9830508,5 10,5 l 1.016949,0 0,1.9915254 0,1.9915254 1.991526,0 1.991525,0 L 15,10 l 0,1.016949 -1.991525,0 -1.991526,0 0,1.991526 0,1.991525 L 10,15 l -1.0169492,0 0,-1.991525 z"
     id="path5820"
     inkscape:connector-curvature="0" />
  <path
     style="fill:#800000;fill-opacity:0;stroke:none"
     d="m 8.9830508,13.008475 0,-1.991526 -1.9915254,0 L 5,11.016949 5,10 5,8.9830508 l 1.9915254,0 1.9915254,0 0,-1.9915254 L 8.9830508,5 10,5 l 1.016949,0 0,1.9915254 0,1.9915254 1.991526,0 1.991525,0 L 15,10 l 0,1.016949 -1.991525,0 -1.991526,0 0,1.991526 0,1.991525 L 10,15 l -1.0169492,0 0,-1.991525 z"
     id="path5822"
     inkscape:connector-curvature="0" />
  <path
     style="fill:#800000;fill-opacity:0;stroke:none"
     d="m 8.9830508,13.008475 0,-1.991526 -1.9915254,0 L 5,11.016949 5,10 5,8.9830508 l 1.9915254,0 1.9915254,0 0,-1.9915254 L 8.9830508,5 10,5 l 1.016949,0 0,1.9915254 0,1.9915254 1.991526,0 1.991525,0 L 15,10 l 0,1.016949 -1.991525,0 -1.991526,0 0,1.991526 0,1.991525 L 10,15 l -1.0169492,0 0,-1.991525 z"
     id="path5824"
     inkscape:connector-curvature="0" />
  <path
     style="fill:#800000;fill-opacity:0;stroke:none"
     d="m 8.9830508,13.008475 0,-1.991526 -1.9915254,0 L 5,11.016949 5,10 5,8.9830508 l 1.9915254,0 1.9915254,0 0,-1.9915254 L 8.9830508,5 10,5 l 1.016949,0 0,1.9915254 0,1.9915254 1.991526,0 1.991525,0 L 15,10 l 0,1.016949 -1.991525,0 -1.991526,0 0,1.991526 0,1.991525 L 10,15 l -1.0169492,0 0,-1.991525 z"
     id="path5826"
     inkscape:connector-curvature="0" />
  <g
     inkscape:groupmode="layer"
     id="layer6"
     inkscape:label="Calque"
     style="display:inline;">
    <path
       style="fill:#296900;fill-opacity:1;stroke:none"
       d="M 9.2118647,18.380163 C 7.295067,18.212307 5.4068419,17.3246 4.0657534,15.960832 3.2852058,15.167085 2.8658464,14.584086 2.4297527,13.686441 1.096373,10.941843 1.3543112,7.6346381 3.0935723,5.1751481 5.7609393,1.403223 10.862292,0.46995992 14.762577,3.0403712 16.09501,3.918487 17.318473,5.4864047 17.8939,7.0532883 18.294185,8.1432609 18.359151,8.5547314 18.359151,10 c 0,1.445269 -0.06497,1.856739 -0.465251,2.946712 -1.07688,2.932339 -3.944009,5.17063 -6.919611,5.401955 -0.363401,0.02825 -0.737001,0.06192 -0.830221,0.07483 -0.09322,0.0129 -0.5127118,-0.0066 -0.9322033,-0.04333 l 0,0 z"
       id="path4423"
       inkscape:connector-curvature="0" />
  </g>
  <g
     inkscape:groupmode="layer"
     id="layer3"
     inkscape:label="CalqueFond"
     style="display:inline">
    <path
       style="fill:#fab300;fill-opacity:1;stroke:none"
       d="m 8.9803474,13.072034 -0.02272,-2.012712 -2.0127118,-0.02272 -2.0127119,-0.02272 0,-1.0154158 0,-1.0154154 1.9899916,0 1.9899917,0 0.02272,-2.0127118 0.02272,-2.0127119 1.0381356,-0.023795 1.0381354,-0.023795 0,2.0365067 0,2.0365066 2.033899,0 2.033898,0 0,1.0169492 0,1.0169494 -2.033898,0 -2.033899,0 0,2.033898 0,2.033899 -1.015415,0 -1.0154156,0 -0.02272,-2.012712 z"
       id="path3836"
       inkscape:connector-curvature="0" />
  </g>
</svg>
